<svg width="202" height="36" viewBox="0 0 202 36" fill="none" xmlns="http://www.w3.org/2000/svg"><path fill-rule="evenodd" clip-rule="evenodd" d="M8.11136 19.4822H3.70226V25.3608H0.0280762V10.0886H3.70226V15.8838H8.11136V10.0886H11.7646V25.3608H8.11136V19.4822Z" fill="white"></path><path fill-rule="evenodd" clip-rule="evenodd" d="M14.9138 19.8589V10.0886H18.5884V19.9637C18.5884 21.3444 19.4071 22.2439 20.6462 22.2439C21.8849 22.2439 22.7245 21.3444 22.7245 19.9637V10.0886H26.3781V19.8589C26.3781 23.5199 24.1315 25.5703 20.6462 25.5703C17.1609 25.5703 14.9138 23.5199 14.9138 19.8589Z" fill="white"></path><path fill-rule="evenodd" clip-rule="evenodd" d="M33.1805 13.4988H29.3594V10.0886H40.5293V13.4988H36.75V25.3608H33.1805V13.4988Z" fill="white"></path><path fill-rule="evenodd" clip-rule="evenodd" d="M57.5721 12.6504L59.2542 16.5498L55.5932 14.3804L52.3907 17.179L53.3301 13.039L49.6687 10.8696L53.9107 10.4806L54.8501 6.34056L56.5326 10.24L60.7746 9.85097L57.5721 12.6504ZM57.7663 23.8407L56.709 26.6508L55.9064 23.7585L52.8981 23.6255L55.4104 21.9712L54.6082 19.0793L56.9636 20.9488L59.4759 19.2945L58.4191 22.1041L60.7745 23.9745L57.7663 23.8407ZM43.9543 6.48295C44.0512 6.72636 44.1198 6.9125 44.199 7.09454C45.8339 10.8545 47.484 14.6083 49.0918 18.3797C49.3336 18.9475 55.4055 32.8309 56.7115 35.8381C58.0081 32.8124 64.1096 18.9205 64.3173 18.4304C65.4103 15.8515 66.5447 13.2902 67.6643 10.7232C68.2724 9.32899 68.88 7.93522 69.5036 6.50463C60.9511 4.40027 52.4868 4.37613 43.9543 6.48295Z" fill="white"></path><path fill-rule="evenodd" clip-rule="evenodd" d="M69.5052 1.65642C63.9629 0.218467 58.3307 -0.274896 52.625 0.143195C49.4103 0.378831 46.2312 0.881194 43.124 1.76647C42.1916 2.03197 41.8156 2.67506 42.0939 3.56565C42.2594 4.09338 42.5115 4.5941 42.7336 5.12879C43.108 5.0486 43.432 4.98928 43.7506 4.90951C47.9375 3.8606 52.203 3.37501 56.5074 3.37869C60.7875 3.38238 65.0258 3.89742 69.1956 4.90092C70.2462 5.15333 70.2487 5.14433 70.7024 4.11465C71.3215 2.70983 70.9988 2.04383 69.5052 1.65642Z" fill="white"></path><path fill-rule="evenodd" clip-rule="evenodd" d="M74.7065 11.5954V18.3736H78.4648C80.7743 18.3736 82.1809 16.6583 82.1809 14.943C82.1809 13.0182 80.7743 11.5954 78.4858 11.5954H74.7065ZM73.0686 10.0886H78.6117C81.6142 10.0886 83.8185 12.2437 83.8185 14.9429C83.8185 16.972 82.5589 18.8129 80.4597 19.4822L83.9446 25.3608H82.0342L78.8215 19.8381H74.7064V25.3608H73.0686V10.0886Z" fill="white"></path><path fill-rule="evenodd" clip-rule="evenodd" d="M90.5791 10.0886H99.8805V11.637H92.2169V16.9303H99.8805V18.4778H92.2169V23.7919H99.8805V25.3608H90.5791V10.0886Z" fill="white"></path><path fill-rule="evenodd" clip-rule="evenodd" d="M106.095 10.0886H107.838L111.492 22.8298L115.733 10.0886H117.308L121.507 22.8502L125.37 10.0886H127.05L122.325 25.3608H120.667L116.488 12.6409L112.268 25.3608H110.588L106.095 10.0886Z" fill="white"></path><path fill-rule="evenodd" clip-rule="evenodd" d="M133.979 19.9424H139.795L136.877 12.2854L133.979 19.9424ZM135.994 10.0886H137.758L143.574 25.3608H141.873L140.383 21.4904H133.391L131.921 25.3608H130.199L135.994 10.0886Z" fill="white"></path><path fill-rule="evenodd" clip-rule="evenodd" d="M151.636 11.5954V18.3736H155.395C157.704 18.3736 159.111 16.6583 159.111 14.943C159.111 13.0182 157.704 11.5954 155.416 11.5954H151.636ZM149.999 10.0886H155.542C158.544 10.0886 160.748 12.2437 160.748 14.9429C160.748 16.972 159.489 18.8129 157.39 19.4822L160.875 25.3608H158.964L155.751 19.8381H151.636V25.3608H149.999V10.0886Z" fill="white"></path><path fill-rule="evenodd" clip-rule="evenodd" d="M169.147 11.5954V23.8338H171.729C175.446 23.8338 178.091 21.1984 178.091 17.7248C178.091 14.2312 175.614 11.5954 171.667 11.5954H169.147ZM167.509 10.0886H171.792C176.558 10.0886 179.771 13.3945 179.771 17.7247C179.771 22.0766 176.37 25.3608 171.855 25.3608H167.509V10.0886Z" fill="white"></path><path fill-rule="evenodd" clip-rule="evenodd" d="M185.398 22.7668L186.783 21.7208C187.812 23.3105 189.072 24.0849 190.814 24.0849C192.726 24.0849 194.069 22.8715 194.069 21.198C194.069 19.3149 192.243 18.7291 190.332 18.0807C188.232 17.3693 186.048 16.4905 186.048 13.8335C186.048 11.6158 188.064 9.87964 190.752 9.87964C192.914 9.87964 194.384 10.7375 195.497 12.1808L194.195 13.1434C193.418 11.93 192.284 11.3229 190.731 11.3229C189.009 11.3229 187.707 12.4111 187.707 13.8335C187.707 15.591 189.471 16.1559 191.36 16.8043C193.481 17.5366 195.728 18.4149 195.728 21.198C195.728 23.457 193.775 25.5703 190.814 25.5703C188.337 25.5703 186.637 24.5239 185.398 22.7668Z" fill="white"></path></svg>